<svg xmlns="http://www.w3.org/2000/svg" viewBox="0 0 480 600" width="480" height="600">
  <defs>
    <linearGradient id="bg" x1="0" y1="0" x2="1" y2="1">
      <stop offset="0" stop-color="#0d2233" />
      <stop offset="1" stop-color="#050d15" />
    </linearGradient>
    <linearGradient id="accent" x1="0" y1="0" x2="1" y2="0">
      <stop offset="0" stop-color="#24a9ff" />
      <stop offset="1" stop-color="#3ddc97" />
    </linearGradient>
  </defs>
  <rect width="480" height="600" fill="url(#bg)" />
  
    <rect x="40" y="44" width="400" height="20" rx="4" fill="#e9f6ff" />
    <rect x="40" y="86" width="185" height="330" rx="10" fill="#1a2f40" />
    <rect x="255" y="86" width="185" height="330" rx="10" fill="#123a2c" stroke="#3ddc97" stroke-width="2" />
    <text x="132" y="112" font-family="Manrope, sans-serif" font-size="13" font-weight="700" fill="#9fc0d6" text-anchor="middle">THEM</text>
    <text x="347" y="112" font-family="Manrope, sans-serif" font-size="13" font-weight="700" fill="#3ddc97" text-anchor="middle">US</text>
    <rect x="56" y="140" width="150" height="12" rx="4" fill="#3a5468" /><rect x="271" y="140" width="150" height="12" rx="4" fill="#3ddc97" /><rect x="56" y="180" width="150" height="12" rx="4" fill="#3a5468" /><rect x="271" y="180" width="150" height="12" rx="4" fill="#3ddc97" /><rect x="56" y="220" width="150" height="12" rx="4" fill="#3a5468" /><rect x="271" y="220" width="150" height="12" rx="4" fill="#3ddc97" />
    <text x="24" y="578" font-family="Manrope, sans-serif" font-size="14" font-weight="700" fill="#6f8a9c" letter-spacing=".01em">Us vs Them</text>
  
</svg>